<svg width="160" height="160" viewBox="0 0 160 160" fill="none" xmlns="http://www.w3.org/2000/svg">
<circle cx="80" cy="80" r="75" stroke="black" stroke-width="10"/>
<g clip-path="url(#clip0_107_132)">
<path fill-rule="evenodd" clip-rule="evenodd" d="M48.9952 50.1332C48.9952 47.7663 47.0764 45.8475 44.7095 45.8475C42.3425 45.8475 40.4238 47.7663 40.4238 50.1332V119.866C40.4238 122.234 42.3425 124.152 44.7095 124.152H114.443C116.81 124.152 118.729 122.234 118.729 119.866C118.729 117.499 116.81 115.581 114.443 115.581H48.9952V50.1332ZM98.4086 58.8929C97.1492 57.9935 95.5792 57.6432 94.0571 57.9222C92.535 58.2012 91.1911 59.0856 90.3327 60.3731L72.7428 86.7581L64.2613 78.2766C62.0297 76.045 58.4116 76.045 56.18 78.2766C53.9485 80.5081 53.9485 84.1262 56.18 86.3578L69.5903 99.768C70.8008 100.979 72.4903 101.583 74.194 101.414C75.8976 101.245 77.4358 100.322 78.3854 98.8972L96.5682 71.623L110.54 81.603C113.109 83.4373 116.677 82.8425 118.511 80.2745C120.346 77.7064 119.751 74.1375 117.183 72.3032L98.4086 58.8929Z" fill="black"/>
</g>
<defs>
<clipPath id="clip0_107_132">
<rect width="80" height="80" fill="white" transform="translate(40 45)"/>
</clipPath>
</defs>
</svg>
