<svg width="160" height="160" viewBox="0 0 160 160" fill="none" xmlns="http://www.w3.org/2000/svg">
<circle cx="80" cy="80" r="75" stroke="black" stroke-width="10"/>
<path fill-rule="evenodd" clip-rule="evenodd" d="M65.0383 44.707C69.5997 44.707 73.6843 46.7483 76.4286 49.9671V76.0414C76.3324 77.2133 75.6667 79.6545 74.1383 81.8833C72.6272 84.0868 70.5135 85.7574 67.6071 86.0818C65.6469 86.3006 64.2351 88.067 64.4539 90.0273C64.6727 91.9876 66.4391 93.3994 68.3994 93.1806C71.6677 92.8158 74.3233 91.5307 76.4286 89.8411V110.809C73.2968 114.858 68.3909 117.465 62.8761 117.465C54.2792 117.465 47.1621 111.13 45.9385 102.873C46.5901 100.869 47.6516 99.1371 48.6683 98.3343C50.2163 97.1119 50.4804 94.8661 49.2581 93.3181C48.0358 91.7701 45.7899 91.506 44.2419 92.7283C43.7151 93.1442 43.222 93.6145 42.7627 94.1266C41.0153 90.2947 40 85.5359 40 81.3372C40 75.7691 41.7855 70.3019 44.6962 66.2749C45.3269 67.4929 46.0809 68.5635 46.8896 69.4848C48.9975 71.8863 51.6303 73.4418 53.6829 73.9098C55.6061 74.3482 57.5205 73.1447 57.9589 71.2216C58.3973 69.2985 57.1938 67.3841 55.2706 66.9457C54.9438 66.8711 53.5658 66.263 52.2577 64.7728C51.206 63.5746 50.296 61.9103 50.0767 59.6846L50.0767 59.6686C50.0767 51.4055 56.7752 44.707 65.0383 44.707ZM97.1241 117.465C91.6092 117.465 86.7032 114.858 83.5714 110.809V77.4198C85.0357 78.4787 86.5881 79.3474 88.0958 79.9835C89.9131 80.7503 92.0079 79.8987 92.7747 78.0815C93.5415 76.2642 92.6899 74.1694 90.8726 73.4026C87.717 72.0711 84.8034 69.4875 83.7837 67.1097C83.7212 66.964 83.6502 66.8246 83.5714 66.6917V49.9674C86.3157 46.7483 90.4004 44.707 94.9619 44.707C103.225 44.707 109.923 51.4055 109.923 59.6686C109.923 60.2166 109.894 60.7577 109.837 61.2905L109.849 61.2971C109.488 63.6393 108.533 65.7991 107.507 66.8107C106.102 68.1956 106.086 70.4569 107.471 71.8614C108.856 73.2659 111.118 73.2818 112.522 71.8969C113.903 70.5346 114.957 68.7514 115.706 66.85C118.378 70.8142 120 76.0299 120 81.3372C120 87.5622 117.769 95.0182 114.228 98.8594L114.098 98.8514C113.367 98.7989 112.427 98.6194 111.377 98.2246C109.305 97.4446 106.798 95.8227 104.615 92.6526C103.496 91.0282 101.272 90.6183 99.648 91.7371C98.0234 92.8559 97.6137 95.0798 98.732 96.7042C101.765 101.107 105.461 103.63 108.861 104.909C110.377 105.48 111.897 105.823 113.307 105.953C110.984 112.654 104.616 117.465 97.1241 117.465Z" fill="black"/>
</svg>
