<svg width="160" height="160" viewBox="0 0 160 160" fill="none" xmlns="http://www.w3.org/2000/svg">
<circle cx="80" cy="80" r="75" stroke="black" stroke-width="10"/>
<path fill-rule="evenodd" clip-rule="evenodd" d="M71.4796 40.3754L68.8335 47.9639L59.7258 53.7065L52.4642 52.4759C51.2551 52.2936 50.0245 52.5148 48.9287 53.1113C47.833 53.7077 46.9216 54.6526 46.3104 55.8259L43.8488 60.6114C43.2181 61.8033 42.9275 63.1797 43.0154 64.5589C43.1033 65.9381 43.5655 67.2553 44.3412 68.3367L48.9566 74.6946V86.18L44.4642 92.5378C43.6886 93.6192 43.2263 94.9364 43.1384 96.3156C43.0506 97.6948 43.3412 99.0712 43.9719 100.263L46.4335 105.049C47.0447 106.222 47.9561 107.167 49.0518 107.763C50.1475 108.36 51.3782 108.581 52.5873 108.398L59.8488 107.168L68.8335 112.911L71.4796 120.499C71.9259 121.784 72.711 122.889 73.7322 123.67C74.7534 124.45 75.9631 124.871 77.2027 124.875H82.3719C83.6116 124.871 84.8212 124.45 85.8424 123.67C86.8636 122.889 87.6487 121.784 88.095 120.499L90.7411 112.911L99.7258 107.168L106.988 108.398C108.197 108.581 109.427 108.36 110.523 107.763C111.618 107.167 112.53 106.222 113.141 105.049L115.603 100.263C116.233 99.0712 116.524 97.6948 116.436 96.3156C116.348 94.9364 115.886 93.6192 115.11 92.5378L110.495 86.18V74.6946L114.988 68.3367C115.763 67.2553 116.225 65.9381 116.313 64.5589C116.401 63.1797 116.11 61.8033 115.48 60.6114L113.018 55.8259C112.407 54.6526 111.496 53.7077 110.4 53.1113C109.304 52.5148 108.073 52.2936 106.864 52.4759L99.603 53.7065L90.6181 47.9639L87.9719 40.3754C87.5256 39.0905 86.7405 37.9854 85.7193 37.2047C84.6981 36.424 83.4885 36.0041 82.2488 36H77.2027C75.9631 36.0041 74.7534 36.424 73.7322 37.2047C72.711 37.9854 71.9259 39.0905 71.4796 40.3754ZM79.7258 94.7207C86.8266 94.7207 92.5829 88.3258 92.5829 80.4373C92.5829 72.5488 86.8266 66.1539 79.7258 66.1539C72.625 66.1539 66.8687 72.5488 66.8687 80.4373C66.8687 88.3258 72.625 94.7207 79.7258 94.7207Z" fill="black"/>
</svg>
